<?xml version="1.0" encoding="UTF-8" standalone="no"?>
<svg width="512" height="512" viewBox="0 0 512 512" xmlns="http://www.w3.org/2000/svg">
	<rect width="512" height="512" rx="100" fill="#4a86e8" />
	<!-- 书本形状 -->
	<rect x="126" y="106" width="260" height="300" rx="10" fill="#ffffff" />
	<!-- 书页线条 -->
	<line x1="256" y1="106" x2="256" y2="406" stroke="#e0e0e0" stroke-width="4" />
	<line x1="156" y1="156" x2="236" y2="156" stroke="#333333" stroke-width="4" />
	<line x1="156" y1="186" x2="236" y2="186" stroke="#333333" stroke-width="4" />
	<line x1="156" y1="216" x2="236" y2="216" stroke="#333333" stroke-width="4" />
	<line x1="156" y1="246" x2="236" y2="246" stroke="#333333" stroke-width="4" />
	<line x1="156" y1="276" x2="236" y2="276" stroke="#333333" stroke-width="4" />
	<line x1="156" y1="306" x2="236" y2="306" stroke="#333333" stroke-width="4" />
	<line x1="156" y1="336" x2="236" y2="336" stroke="#333333" stroke-width="4" />
	<!-- 右侧笔记符号 -->
	<line x1="276" y1="156" x2="356" y2="156" stroke="#4a86e8" stroke-width="4" />
	<line x1="276" y1="186" x2="356" y2="186" stroke="#4a86e8" stroke-width="4" />
	<line x1="276" y1="216" x2="356" y2="216" stroke="#4a86e8" stroke-width="4" />
	<line x1="276" y1="246" x2="356" y2="246" stroke="#4a86e8" stroke-width="4" />
	<line x1="276" y1="276" x2="356" y2="276" stroke="#4a86e8" stroke-width="4" />
	<line x1="276" y1="306" x2="356" y2="306" stroke="#4a86e8" stroke-width="4" />
	<line x1="276" y1="336" x2="356" y2="336" stroke="#4a86e8" stroke-width="4" />
	<!-- 笔 -->
	<path d="M386 126 L406 106 L426 126 L406 336 Z" fill="#ffcc00" />
	<rect x="401" y="126" width="10" height="210" fill="#e69138" />
</svg>
