<?xml version="1.0" encoding="UTF-8" standalone="no"?>
<svg width="512" height="512" viewBox="0 0 512 512" xmlns="http://www.w3.org/2000/svg">
	<!-- 背景 -->
	<defs>
		<linearGradient id="bgGradient" x1="0%" y1="0%" x2="100%" y2="100%">
			<stop offset="0%" stop-color="#4A86E8" />
			<stop offset="100%" stop-color="#3366CC" />
		</linearGradient>
		<filter id="shadow" x="-10%" y="-10%" width="120%" height="120%">
			<feDropShadow dx="0" dy="4" stdDeviation="10" flood-color="#000000" flood-opacity="0.2" />
		</filter>
	</defs>
	<!-- 圆角背景 -->
	<rect width="512" height="512" rx="128" fill="url(#bgGradient)" />
	<!-- 书本和纸张 -->
	<g filter="url(#shadow)">
		<!-- 主书本 -->
		<rect x="136" y="116" width="240" height="280" rx="8" fill="#ffffff" />
		<!-- 书页效果 -->
		<path d="M136,116 C136,116 156,126 256,126 C356,126 376,116 376,116 L376,396 C376,396 356,386 256,386 C156,386 136,396 136,396 Z" fill="#f8f8f8" />
		<!-- 书脊阴影 -->
		<rect x="250" y="126" width="12" height="260" fill="#eeeeee" />
	</g>
	<!-- 文本线条 - 左页 -->
	<g stroke="#bbbbbb" stroke-width="3">
		<line x1="166" y1="166" x2="236" y2="166" />
		<line x1="166" y1="196" x2="236" y2="196" />
		<line x1="166" y1="226" x2="236" y2="226" />
		<line x1="166" y1="256" x2="236" y2="256" />
		<line x1="166" y1="286" x2="236" y2="286" />
		<line x1="166" y1="316" x2="236" y2="316" />
	</g>
	<!-- 文本线条 - 右页 -->
	<g stroke="#4A86E8" stroke-width="3" opacity="0.7">
		<line x1="276" y1="166" x2="346" y2="166" />
		<line x1="276" y1="196" x2="346" y2="196" />
		<line x1="276" y1="226" x2="346" y2="226" />
		<line x1="276" y1="256" x2="346" y2="256" />
		<line x1="276" y1="286" x2="346" y2="286" />
		<line x1="276" y1="316" x2="346" y2="316" />
	</g>
	<!-- 笔 -->
	<g transform="translate(380, 150) rotate(45)">
		<rect x="-10" y="-80" width="20" height="160" rx="10" fill="#FFD43B" filter="url(#shadow)" />
		<path d="M-10,-80 L10,-80 L0,-100 Z" fill="#FFD43B" />
		<rect x="-6" y="60" width="12" height="20" fill="#E6B731" />
	</g>
	<!-- 装饰元素 - 圆点 -->
	<circle cx="136" cy="116" r="8" fill="#4A86E8" opacity="0.5" />
	<circle cx="376" cy="116" r="8" fill="#4A86E8" opacity="0.5" />
	<circle cx="136" cy="396" r="8" fill="#4A86E8" opacity="0.5" />
	<circle cx="376" cy="396" r="8" fill="#4A86E8" opacity="0.5" />
</svg>
